<?xml version="1.0" encoding="UTF-8"?>
<svg width="1882px" height="804px" viewBox="0 0 1882 804" version="1.1" xmlns="http://www.w3.org/2000/svg" xmlns:xlink="http://www.w3.org/1999/xlink">
    <!-- Generator: Sketch 51.3 (57544) - http://www.bohemiancoding.com/sketch -->
    <title>Group 23</title>
    <desc>Created with Sketch.</desc>
    <defs>
        <polygon id="path-1" points="0 1097.88 2049.115 1097.88 2049.115 0.996 0 0.996"></polygon>
    </defs>
    <g id="Symbols" stroke="none" stroke-width="1" fill="none" fill-rule="evenodd">
        <g id="MOC_Logo" transform="translate(-82.000000, -147.000000)">
            <g id="Group-23">
                <path d="M885.6118,549.4381 C885.6118,771.1591 705.8718,950.8981 484.1508,950.8981 C262.4298,950.8981 82.6898,771.1591 82.6898,549.4381 C82.6898,327.7171 262.4298,147.9771 484.1508,147.9771 C705.8718,147.9771 885.6118,327.7171 885.6118,549.4381" id="Fill-1" fill="#00A59C"></path>
                <path d="M484.1499,186.9703 C284.2839,186.9703 121.6819,349.5723 121.6819,549.4363 C121.6819,749.3033 284.2839,911.9053 484.1499,911.9053 C684.0159,911.9053 846.6189,749.3033 846.6189,549.4363 C846.6189,349.5723 684.0159,186.9703 484.1499,186.9703" id="Fill-3" fill="#05364F"></path>
                <mask id="mask-2" fill="white">
                    <use xlink:href="#path-1"></use>
                </mask>
                <g id="Clip-6"></g>
                <polygon id="Fill-5" fill="#00A59C" mask="url(#mask-2)" points="137.896 719.663 1963.98 719.663 1963.98 703.809 137.896 703.809"></polygon>
                <path d="M484.1504,921.2443 C278.8074,921.2443 112.3444,754.7813 112.3444,549.4383 C112.3444,344.0953 278.8074,177.6323 484.1504,177.6323 C689.4934,177.6323 855.9564,344.0953 855.9564,549.4383 C855.9564,754.7813 689.4934,921.2443 484.1504,921.2443 M484.1504,168.2953 C273.9874,168.2953 103.0074,339.2743 103.0074,549.4363 C103.0074,759.6013 273.9874,930.5813 484.1504,930.5813 C694.3144,930.5813 865.2944,759.6013 865.2944,549.4363 C865.2944,339.2743 694.3144,168.2953 484.1504,168.2953" id="Fill-7" fill="#FEFEFE" mask="url(#mask-2)"></path>
                <path d="M484.1504,911.9054 C284.2844,911.9054 121.6824,749.3034 121.6824,549.4364 C121.6824,349.5724 284.2844,186.9704 484.1504,186.9704 C684.0164,186.9704 846.6194,349.5724 846.6194,549.4364 C846.6194,749.3034 684.0164,911.9054 484.1504,911.9054 M484.1504,177.6324 C278.8084,177.6324 112.3444,344.0944 112.3444,549.4384 C112.3444,754.7814 278.8084,921.2444 484.1504,921.2444 C689.4934,921.2444 855.9574,754.7814 855.9574,549.4384 C855.9574,344.0944 689.4934,177.6324 484.1504,177.6324" id="Fill-8" fill="#FEFEFE" mask="url(#mask-2)"></path>
                <polygon id="Fill-9" fill="#FEFEFE" mask="url(#mask-2)" points="268.075 790.417 338.16 790.417 338.16 308.459 268.075 308.459"></polygon>
                <polygon id="Fill-10" fill="#FEFEFE" mask="url(#mask-2)" points="623.8726 308.4591 487.0246 621.0441 412.3876 454.0511 412.3876 618.9201 452.7496 790.4171 517.8586 790.4171 629.6226 433.4841 629.6226 790.4171 700.2266 790.4171 700.2266 308.4591"></polygon>
                <polygon id="Fill-11" fill="#FFFFFF" mask="url(#mask-2)" points="1136.2949 484.5109 1136.0389 365.7049 1077.1479 464.0269 1062.2969 464.0269 1003.4069 367.2409 1003.4069 484.5109 971.6569 484.5109 971.6569 305.2779 999.0539 305.2779 1070.2339 424.0839 1140.1359 305.2779 1167.5329 305.2779 1167.7889 484.5109"></polygon>
                <path d="M1332.168,449.8165 C1341.726,444.4395 1349.234,436.9305 1354.699,427.2845 C1360.16,417.6425 1362.894,406.8445 1362.894,394.8945 C1362.894,382.9485 1360.16,372.1505 1354.699,362.5045 C1349.234,352.8625 1341.726,345.3495 1332.168,339.9725 C1322.605,334.5955 1311.852,331.9065 1299.905,331.9065 C1287.955,331.9065 1277.201,334.5955 1267.644,339.9725 C1258.082,345.3495 1250.572,352.8625 1245.111,362.5045 C1239.647,372.1505 1236.918,382.9485 1236.918,394.8945 C1236.918,406.8445 1239.647,417.6425 1245.111,427.2845 C1250.572,436.9305 1258.082,444.4395 1267.644,449.8165 C1277.201,455.1935 1287.955,457.8815 1299.905,457.8815 C1311.852,457.8815 1322.605,455.1935 1332.168,449.8165 M1250.488,475.1655 C1235.806,467.2275 1224.283,456.2175 1215.922,442.1345 C1207.557,428.0525 1203.375,412.3055 1203.375,394.8945 C1203.375,377.4835 1207.557,361.7365 1215.922,347.6535 C1224.283,333.5715 1235.806,322.5615 1250.488,314.6235 C1265.168,306.6865 1281.639,302.7175 1299.905,302.7175 C1318.168,302.7175 1334.641,306.6865 1349.322,314.6235 C1364.002,322.5615 1375.523,333.5315 1383.89,347.5255 C1392.25,361.5245 1396.436,377.3155 1396.436,394.8945 C1396.436,412.4775 1392.25,428.2685 1383.89,442.2635 C1375.523,456.2615 1364.002,467.2275 1349.322,475.1655 C1334.641,483.1025 1318.168,487.0715 1299.905,487.0715 C1281.639,487.0715 1265.168,483.1025 1250.488,475.1655" id="Fill-12" fill="#FFFFFF" mask="url(#mask-2)"></path>
                <polygon id="Fill-13" fill="#FFFFFF" mask="url(#mask-2)" points="1591.0293 305.2779 1591.0293 484.5109 1563.6323 484.5109 1464.7983 363.1449 1464.7983 484.5109 1431.7683 484.5109 1431.7683 305.2779 1459.1653 305.2779 1557.9993 426.6439 1557.9993 305.2779"></polygon>
                <polygon id="Fill-14" fill="#FFFFFF" mask="url(#mask-2)" points="1773.5898 456.6017 1773.5898 484.5107 1639.1648 484.5107 1639.1648 305.2777 1770.0048 305.2777 1770.0048 333.1867 1672.4508 333.1867 1672.4508 379.7877 1758.9948 379.7877 1758.9948 407.1847 1672.4508 407.1847 1672.4508 456.6017"></polygon>
                <polygon id="Fill-15" fill="#FFFFFF" mask="url(#mask-2)" points="1885.9951 421.2672 1885.9951 484.5112 1852.7091 484.5112 1852.7091 421.7792 1782.2961 305.2782 1817.8871 305.2782 1870.3761 392.5902 1923.3781 305.2782 1956.1521 305.2782"></polygon>
                <path d="M1030.916,652.9015 C1036.409,649.7145 1040.715,645.2385 1043.836,639.4705 C1046.955,633.7075 1048.517,627.0925 1048.517,619.6305 C1048.517,612.1725 1046.955,605.5585 1043.836,599.7915 C1040.715,594.0275 1036.409,589.5855 1030.916,586.4635 C1025.422,583.3435 1019.214,581.7835 1012.296,581.7835 C1005.377,581.7835 999.171,583.3435 993.678,586.4635 C988.184,589.5855 983.84,594.0275 980.654,599.7915 C977.465,605.5585 975.873,612.1725 975.873,619.6305 C975.873,627.0925 977.465,633.7075 980.654,639.4705 C983.84,645.2385 988.184,649.7145 993.678,652.9015 C999.171,656.0895 1005.377,657.6825 1012.296,657.6825 C1019.214,657.6825 1025.422,656.0895 1030.916,652.9015 M983.401,667.6535 C974.855,662.9065 968.171,656.3605 963.358,648.0175 C958.541,639.6745 956.135,630.2145 956.135,619.6305 C956.135,609.0495 958.541,599.5885 963.358,591.2455 C968.171,582.9025 974.855,576.3905 983.401,571.7105 C991.948,567.0305 1001.579,564.6905 1012.296,564.6905 C1023.012,564.6905 1032.609,567.0305 1041.09,571.7105 C1049.565,576.3905 1056.215,582.9025 1061.03,591.2455 C1065.845,599.5885 1068.255,609.0495 1068.255,619.6305 C1068.255,630.2145 1065.845,639.6745 1061.03,648.0175 C1056.215,656.3605 1049.565,662.9065 1041.09,667.6535 C1032.609,672.4035 1023.012,674.7755 1012.296,674.7755 C1001.579,674.7755 991.948,672.4035 983.401,667.6535" id="Fill-16" fill="#FFFFFF" mask="url(#mask-2)"></path>
                <path d="M1185.5625,576.5939 C1193.6315,584.5309 1197.6695,596.1629 1197.6695,611.4909 L1197.6695,673.5549 L1178.1355,673.5549 L1178.1355,613.7309 C1178.1355,603.2849 1175.6235,595.4159 1170.6055,590.1259 C1165.5855,584.8349 1158.3965,582.1899 1149.0365,582.1899 C1138.4555,582.1899 1130.1125,585.2789 1124.0085,591.4489 C1117.9035,597.6229 1114.8515,606.4749 1114.8515,618.0029 L1114.8515,673.5549 L1095.3165,673.5549 L1095.3165,565.7079 L1114.0375,565.7079 L1114.0375,581.9879 C1117.9705,576.4259 1123.2945,572.1539 1130.0115,569.1669 C1136.7265,566.1849 1144.3565,564.6909 1152.9025,564.6909 C1166.6035,564.6909 1177.4895,568.6579 1185.5625,576.5939" id="Fill-17" fill="#FFFFFF" mask="url(#mask-2)"></path>
                <path d="M1317.6211,666.128 C1306.0211,659.819 1296.9321,651.106 1290.3531,639.981 C1283.7721,628.858 1280.4851,616.309 1280.4851,602.335 C1280.4851,588.364 1283.8081,575.815 1290.4551,564.69 C1297.1011,553.568 1306.2261,544.851 1317.8251,538.543 C1329.4231,532.235 1342.4111,529.081 1356.7921,529.081 C1368.4571,529.081 1379.1051,531.116 1388.7391,535.185 C1398.3691,539.255 1406.5091,545.156 1413.1571,552.888 L1396.0641,568.964 C1385.7531,557.842 1373.0701,552.277 1358.0131,552.277 C1348.2461,552.277 1339.4961,554.414 1331.7631,558.689 C1324.0311,562.961 1317.9931,568.898 1313.6531,576.492 C1309.3101,584.091 1307.1421,592.704 1307.1421,602.335 C1307.1421,611.969 1309.3101,620.582 1313.6531,628.178 C1317.9931,635.776 1324.0311,641.709 1331.7631,645.982 C1339.4961,650.256 1348.2461,652.393 1358.0131,652.393 C1373.0701,652.393 1385.7531,646.765 1396.0641,635.503 L1413.1571,651.782 C1406.5091,659.515 1398.3341,665.415 1388.6371,669.485 C1378.9351,673.555 1368.2531,675.59 1356.5881,675.59 C1342.2071,675.59 1329.2201,672.436 1317.6211,666.128" id="Fill-18" fill="#FFFFFF" mask="url(#mask-2)"></path>
                <polygon id="Fill-19" fill="#FFFFFF" mask="url(#mask-2)" points="1565.1582 531.1158 1565.1582 673.5548 1538.7052 673.5548 1538.7052 612.5088 1465.0442 612.5088 1465.0442 673.5548 1438.5912 673.5548 1438.5912 531.1158 1465.0442 531.1158 1465.0442 589.9218 1538.7052 589.9218 1538.7052 531.1158"></polygon>
                <path d="M1687.0449,619.8351 L1660.1849,557.5681 L1633.5269,619.8351 L1687.0449,619.8351 Z M1695.7949,640.5901 L1624.5739,640.5901 L1610.5339,673.5551 L1583.2679,673.5551 L1647.3639,531.1161 L1673.4099,531.1161 L1737.7109,673.5551 L1710.0379,673.5551 L1695.7949,640.5901 Z" id="Fill-20" fill="#FFFFFF" mask="url(#mask-2)"></path>
                <polygon id="Fill-21" fill="#FFFFFF" mask="url(#mask-2)" points="1755.821 673.555 1782.274 673.555 1782.274 531.116 1755.821 531.116"></polygon>
                <polygon id="Fill-22" fill="#FFFFFF" mask="url(#mask-2)" points="1947.2969 526.76617 1947.2969 677.90443 1924.19414 677.90443 1840.85212 575.561761 1840.85212 677.90443 1813 677.90443 1813 526.76617 1836.10169 526.76617 1919.44372 629.108839 1919.44372 526.76617"></polygon>
            </g>
        </g>
    </g>
</svg>